<svg id="Layer_1" height="512" viewBox="0 0 512 512" width="512" xmlns="http://www.w3.org/2000/svg" ><path d="m334.39 141.67c.32 0 .64-.01.96-.04a111.285 111.285 0 0 1 -6.77 26.52 11.876 11.876 0 0 0 -3.44-.5h-3.23v-21.66q0-2.175-.18-4.32z" fill="#4a5160"/><path d="m177.61 141.67h15.52c-.13 1.42-.19 2.86-.19 4.32v21.66h-3.22a12.093 12.093 0 0 0 -5 1.08l-3.93-9.88a85.3 85.3 0 0 1 -4.83-17.3 11.244 11.244 0 0 0 1.65.12z" fill="#4a5160"/><path d="m269.32 30.51h-26.64a64.085 64.085 0 0 0 -64.11 64.07v23.16h154.86v-23.16a64.085 64.085 0 0 0 -64.11-64.07z" fill="#fcca3d"/><path d="m334.39 117.74h-156.78a11.962 11.962 0 0 0 -1.65 23.81l159.39.08a11.964 11.964 0 0 0 -.96-23.89z" fill="#edb740"/><path d="m265.28 20.84a13.131 13.131 0 0 0 -22.41 9.28l.02 56.15h26.22l.02-56.15a13.083 13.083 0 0 0 -3.85-9.28z" fill="#fadf4a"/><path d="m269.11 81.27a23.387 23.387 0 1 1 -13.11-4.02 23.35 23.35 0 0 1 13.11 4.02z" fill="#fb6771"/><path d="m360.71 301.45c-1.29-.31-2.475-.63-3.755-.97l.045.18-21.66-7 .1-.26a225.279 225.279 0 0 1 -25.065-11.79l-15.375-8.34-78 2.216-18.75 9.337a192.32 192.32 0 0 1 -21.57 9.219l-21.68 6.444c-1 .34-2.535.657-3.835.967a76.038 76.038 0 0 0 -58.165 73.987v119.56h326v-119.56a76.152 76.152 0 0 0 -58.29-73.99z" fill="#4689d3"/><path d="m356.8 300.48-.05.18v78.72h-21.41v-85.72l.1-.26a186.153 186.153 0 0 0 21.36 7.08z" fill="#56568c"/><path d="m356.75 379h-201.5a4.559 4.559 0 0 0 -4.25 4.28v111.72h210v-111.72a4.559 4.559 0 0 0 -4.25-4.28z" fill="#67679b"/><path d="m217 275.486-18.75 9.337a192.32 192.32 0 0 1 -21.57 9.219l-21.68 6.444c-1 .34-2.535.657-3.835.967a76.038 76.038 0 0 0 -58.165 73.987v119.56h30v-119.56a76.038 76.038 0 0 1 58.165-73.987c1.3-.31 2.835-.627 3.835-.967l21.68-6.444a192.32 192.32 0 0 0 21.57-9.219l18.75-9.337z" fill="#407cb2"/><path d="m176.66 379.08v.3h-21.41v-78.9c7.17-1.83 14.25-3.96 21.19-6.45l.22.6z" fill="#56568c"/><path d="m217 259v39.34a50.778 50.778 0 0 0 78 0v-36.56l.155-.14z" fill="#efc597"/><path d="m216.72 259.31a60.168 60.168 0 0 1 -18.69-34.97l-5.09-32.48h-3.22a12.105 12.105 0 1 1 0-24.21h3.22v-21.66c0-1.46.06-2.9.19-4.32h128.6q.18 2.145.18 4.32v21.66h3.23a11.876 11.876 0 0 1 3.44.5 12.105 12.105 0 0 1 -3.44 23.71h-3.23l-5.09 32.48a60.18 60.18 0 0 1 -21.45 37.36 59.287 59.287 0 0 1 -9.65 6.42 60.115 60.115 0 0 1 -69-8.81z" fill="#ffd8b7"/><path d="m246.72 259.31a60.168 60.168 0 0 1 -18.69-34.97l-5.09-78.35c0-1.46.06-2.9.19-4.32h-30c-.13 1.42-.19 2.86-.19 4.32v21.66h-3.22a12.105 12.105 0 0 0 0 24.21h3.22l5.09 32.48a60.056 60.056 0 0 0 74.4 48.943 59.978 59.978 0 0 1 -25.71-13.973z" fill="#e2bda1"/><g fill="#284268"><path d="m362.106 295.618a198.106 198.106 0 0 1 -48.806-19.268l-12.3-6.631v-4.956a66.553 66.553 0 0 0 21.751-39.495l4.31-27.511a18.085 18.085 0 0 0 8.932-32.45 117.9 117.9 0 0 0 4.7-18.8 17.791 17.791 0 0 0 11.453-16.8 17.561 17.561 0 0 0 -13.146-17.24v-17.888a69.978 69.978 0 0 0 -64.876-69.871 19.025 19.025 0 0 0 -18.23-13.708 18.832 18.832 0 0 0 -18.071 13.708 69.931 69.931 0 0 0 -64.823 69.871v17.888a17.561 17.561 0 0 0 -13.149 17.233 17.8 17.8 0 0 0 10.906 16.6 91.281 91.281 0 0 0 4.457 14.765l2.174 5.471a18.085 18.085 0 0 0 10.405 31.219l4.309 27.51a66.516 66.516 0 0 0 18.898 36.835v9.646l-15.442 7.69a209.487 209.487 0 0 1 -45.594 16.183 81.9 81.9 0 0 0 -62.964 79.823v119.558a6.106 6.106 0 0 0 6.122 6h325.756a6.106 6.106 0 0 0 6.122-6v-119.558a81.834 81.834 0 0 0 -62.894-79.824zm-21.106 6.376c3 1.1 7 2.109 10 3.024v67.982h-10zm-66-265.194a58.163 58.163 0 0 1 52 57.779v17.421h-43.868a31.98 31.98 0 0 0 2.145-11.286 30.467 30.467 0 0 0 -10.277-22.343zm-26-6.677a7 7 0 1 1 14 0v42.009a28.281 28.281 0 0 0 -14 0zm7 53.129a17.331 17.331 0 1 1 -17.342 17.331 17.357 17.357 0 0 1 17.342-17.331zm-71 11.327a58.163 58.163 0 0 1 52-57.779v41.571a30.467 30.467 0 0 0 -10.277 22.343 31.98 31.98 0 0 0 2.145 11.286h-43.868zm-13.363 35.421a6.005 6.005 0 0 1 5.971-6h60.413a29.257 29.257 0 0 0 35.958 0h60.413a6 6 0 0 1 0 12h-156.784a6.005 6.005 0 0 1 -5.971-6zm156.663 17.666c-.123.635-.254 1.268-.389 1.9v-1.9zm-141.3.334v10.086l-.606-1.285a79.865 79.865 0 0 1 -2.979-8.8zm16.958 75.415-5.088-32.415a5.94 5.94 0 0 0 -5.928-5h-3.224a6 6 0 1 1 0-12h3.224a6.354 6.354 0 0 0 6.058-6.346v-19.654h117v19.654a6.231 6.231 0 0 0 5.911 6.346h3.224a6 6 0 1 1 0 12h-3.224a5.939 5.939 0 0 0 -5.928 5l-5.083 32.446a54.116 54.116 0 0 1 -106.938-.031zm85.042 49.735v22.915c-8 9.259-20.293 14.528-33 14.528s-25-5.269-33-14.528v-24.549q1.625.994 3.312 1.9a65.968 65.968 0 0 0 62.23 0c.158-.087.303-.182.458-.266zm-106 24.974c6-2.411 12.315-5.051 18.117-7.967l9.883-4.983v13.167a5.875 5.875 0 0 0 1.28 3.877 57.211 57.211 0 0 0 87.549 0 5.785 5.785 0 0 0 1.171-3.877v-14.926l6.316 3.45c7.207 3.964 14.684 7.465 21.684 10.5v75.635h-146zm-22 6.965c3-.879 7-1.8 10-2.777v70.688h-10zm194 183.911h-198v-50a6 6 0 0 0 -12 0v50h-46v-113.558a70.534 70.534 0 0 1 50-67.209v66.751a11.916 11.916 0 0 0 -4 8.3v13.716a6 6 0 0 0 12 0v-12h198zm58 0h-46v-105.719a11.916 11.916 0 0 0 -4-8.3v-66.748a70.534 70.534 0 0 1 50 67.209z"/><path d="m115 407.425a6 6 0 0 0 -6 6v50.756a6 6 0 1 0 12 0v-50.756a6 6 0 0 0 -6-6z"/><path d="m115 383.857a6 6 0 0 0 -6 6v4.884a6 6 0 0 0 12 0v-4.884a6 6 0 0 0 -6-6z"/></g></svg>